<mxfile host="Electron" agent="Mozilla/5.0 (Windows NT 10.0; Win64; x64) AppleWebKit/537.36 (KHTML, like Gecko) draw.io/26.2.2 Chrome/134.0.6998.178 Electron/35.1.2 Safari/537.36" version="26.2.2">
  <diagram name="Page-1" id="kDYEAKsUjOAsDCR-wg7L">
    <mxGraphModel dx="1310" dy="4338" grid="1" gridSize="10" guides="1" tooltips="1" connect="1" arrows="1" fold="1" page="1" pageScale="1" pageWidth="827" pageHeight="1169" math="0" shadow="0">
      <root>
        <mxCell id="0" />
        <mxCell id="1" parent="0" />
        <mxCell id="fqJWR_jfEDpAS1yq1Xmd-133" value="&lt;b&gt;parse pressure file&lt;/b&gt;" style="shape=umlFrame;whiteSpace=wrap;html=1;pointerEvents=0;recursiveResize=0;container=1;collapsible=0;width=160;" parent="1" vertex="1">
          <mxGeometry x="402" y="-1049" width="388" height="659" as="geometry" />
        </mxCell>
        <mxCell id="fqJWR_jfEDpAS1yq1Xmd-188" value="" style="edgeStyle=orthogonalEdgeStyle;rounded=0;orthogonalLoop=1;jettySize=auto;html=1;dashed=1;endArrow=none;endFill=0;" parent="fqJWR_jfEDpAS1yq1Xmd-133" source="fqJWR_jfEDpAS1yq1Xmd-134" target="fqJWR_jfEDpAS1yq1Xmd-103" edge="1">
          <mxGeometry relative="1" as="geometry" />
        </mxCell>
        <mxCell id="fqJWR_jfEDpAS1yq1Xmd-134" value="&lt;b&gt;raw unparsed pressure file&lt;/b&gt;" style="html=1;whiteSpace=wrap;fillColor=#8BC478;" parent="fqJWR_jfEDpAS1yq1Xmd-133" vertex="1">
          <mxGeometry x="55" y="70" width="110" height="50" as="geometry" />
        </mxCell>
        <mxCell id="fqJWR_jfEDpAS1yq1Xmd-246" style="edgeStyle=orthogonalEdgeStyle;rounded=0;orthogonalLoop=1;jettySize=auto;html=1;exitX=0.5;exitY=1;exitDx=0;exitDy=0;entryX=0.5;entryY=0;entryDx=0;entryDy=0;" parent="fqJWR_jfEDpAS1yq1Xmd-133" source="fqJWR_jfEDpAS1yq1Xmd-110" target="fqJWR_jfEDpAS1yq1Xmd-117" edge="1">
          <mxGeometry relative="1" as="geometry">
            <Array as="points">
              <mxPoint x="290" y="300" />
              <mxPoint x="110" y="300" />
            </Array>
          </mxGeometry>
        </mxCell>
        <mxCell id="fqJWR_jfEDpAS1yq1Xmd-110" value="&lt;b&gt;preproces_case_log_file&lt;/b&gt;&lt;div style=&quot;text-align: left;&quot;&gt;- replace &#39;=&#39; with &#39; &#39;&lt;br&gt;&lt;/div&gt;" style="html=1;dashed=0;rounded=1;absoluteArcSize=1;arcSize=20;verticalAlign=middle;align=center;whiteSpace=wrap;" parent="fqJWR_jfEDpAS1yq1Xmd-133" vertex="1">
          <mxGeometry x="210" y="220" width="160" height="50" as="geometry" />
        </mxCell>
        <mxCell id="fqJWR_jfEDpAS1yq1Xmd-105" value="" style="edgeStyle=orthogonalEdgeStyle;rounded=0;orthogonalLoop=1;jettySize=auto;html=1;" parent="fqJWR_jfEDpAS1yq1Xmd-133" source="fqJWR_jfEDpAS1yq1Xmd-114" target="fqJWR_jfEDpAS1yq1Xmd-110" edge="1">
          <mxGeometry relative="1" as="geometry" />
        </mxCell>
        <mxCell id="fqJWR_jfEDpAS1yq1Xmd-106" value="yes" style="edgeLabel;html=1;align=center;verticalAlign=middle;resizable=0;points=[];" parent="fqJWR_jfEDpAS1yq1Xmd-105" vertex="1" connectable="0">
          <mxGeometry x="-0.3333" relative="1" as="geometry">
            <mxPoint as="offset" />
          </mxGeometry>
        </mxCell>
        <mxCell id="fqJWR_jfEDpAS1yq1Xmd-107" value="" style="edgeStyle=orthogonalEdgeStyle;rounded=0;orthogonalLoop=1;jettySize=auto;html=1;entryX=0.5;entryY=0;entryDx=0;entryDy=0;exitX=0.5;exitY=1;exitDx=0;exitDy=0;" parent="fqJWR_jfEDpAS1yq1Xmd-133" source="fqJWR_jfEDpAS1yq1Xmd-114" target="fqJWR_jfEDpAS1yq1Xmd-117" edge="1">
          <mxGeometry relative="1" as="geometry">
            <Array as="points" />
          </mxGeometry>
        </mxCell>
        <mxCell id="fqJWR_jfEDpAS1yq1Xmd-108" value="no" style="edgeLabel;html=1;align=center;verticalAlign=middle;resizable=0;points=[];" parent="fqJWR_jfEDpAS1yq1Xmd-107" vertex="1" connectable="0">
          <mxGeometry x="0.0833" relative="1" as="geometry">
            <mxPoint y="-12" as="offset" />
          </mxGeometry>
        </mxCell>
        <mxCell id="fqJWR_jfEDpAS1yq1Xmd-244" style="edgeStyle=orthogonalEdgeStyle;rounded=0;orthogonalLoop=1;jettySize=auto;html=1;entryX=1;entryY=0.5;entryDx=0;entryDy=0;exitX=0.5;exitY=1;exitDx=0;exitDy=0;" parent="fqJWR_jfEDpAS1yq1Xmd-133" source="fqJWR_jfEDpAS1yq1Xmd-124" target="fqJWR_jfEDpAS1yq1Xmd-131" edge="1">
          <mxGeometry relative="1" as="geometry" />
        </mxCell>
        <mxCell id="fqJWR_jfEDpAS1yq1Xmd-124" value="&lt;div style=&quot;text-align: left;&quot;&gt;&lt;b&gt;apply_pressure_correction&lt;/b&gt;&lt;/div&gt;" style="html=1;dashed=0;rounded=1;absoluteArcSize=1;arcSize=20;verticalAlign=middle;align=center;whiteSpace=wrap;" parent="fqJWR_jfEDpAS1yq1Xmd-133" vertex="1">
          <mxGeometry x="210" y="411.5" width="160" height="50" as="geometry" />
        </mxCell>
        <mxCell id="fqJWR_jfEDpAS1yq1Xmd-125" style="edgeStyle=orthogonalEdgeStyle;rounded=0;orthogonalLoop=1;jettySize=auto;html=1;" parent="fqJWR_jfEDpAS1yq1Xmd-133" source="fqJWR_jfEDpAS1yq1Xmd-129" target="fqJWR_jfEDpAS1yq1Xmd-124" edge="1">
          <mxGeometry relative="1" as="geometry" />
        </mxCell>
        <mxCell id="fqJWR_jfEDpAS1yq1Xmd-126" value="yes" style="edgeLabel;html=1;align=center;verticalAlign=middle;resizable=0;points=[];" parent="fqJWR_jfEDpAS1yq1Xmd-125" vertex="1" connectable="0">
          <mxGeometry x="-0.22" relative="1" as="geometry">
            <mxPoint as="offset" />
          </mxGeometry>
        </mxCell>
        <mxCell id="fqJWR_jfEDpAS1yq1Xmd-149" style="edgeStyle=orthogonalEdgeStyle;rounded=0;orthogonalLoop=1;jettySize=auto;html=1;entryX=0.5;entryY=0;entryDx=0;entryDy=0;" parent="fqJWR_jfEDpAS1yq1Xmd-133" source="fqJWR_jfEDpAS1yq1Xmd-103" target="fqJWR_jfEDpAS1yq1Xmd-114" edge="1">
          <mxGeometry relative="1" as="geometry" />
        </mxCell>
        <mxCell id="fqJWR_jfEDpAS1yq1Xmd-131" value="&lt;div style=&quot;text-align: left;&quot;&gt;&lt;span style=&quot;background-color: initial;&quot;&gt;format pressure data set&lt;/span&gt;&lt;/div&gt;" style="html=1;dashed=0;rounded=1;absoluteArcSize=1;arcSize=20;verticalAlign=middle;align=center;whiteSpace=wrap;" parent="fqJWR_jfEDpAS1yq1Xmd-133" vertex="1">
          <mxGeometry x="30" y="510" width="160" height="50" as="geometry" />
        </mxCell>
        <mxCell id="fqJWR_jfEDpAS1yq1Xmd-130" value="" style="edgeStyle=orthogonalEdgeStyle;rounded=0;orthogonalLoop=1;jettySize=auto;html=1;" parent="fqJWR_jfEDpAS1yq1Xmd-133" source="fqJWR_jfEDpAS1yq1Xmd-131" target="fqJWR_jfEDpAS1yq1Xmd-136" edge="1">
          <mxGeometry relative="1" as="geometry" />
        </mxCell>
        <mxCell id="fqJWR_jfEDpAS1yq1Xmd-132" value="" style="edgeStyle=orthogonalEdgeStyle;rounded=0;orthogonalLoop=1;jettySize=auto;html=1;exitX=0.5;exitY=1;exitDx=0;exitDy=0;" parent="fqJWR_jfEDpAS1yq1Xmd-133" source="fqJWR_jfEDpAS1yq1Xmd-129" target="fqJWR_jfEDpAS1yq1Xmd-131" edge="1">
          <mxGeometry relative="1" as="geometry" />
        </mxCell>
        <mxCell id="fqJWR_jfEDpAS1yq1Xmd-243" value="no" style="edgeLabel;html=1;align=center;verticalAlign=middle;resizable=0;points=[];" parent="fqJWR_jfEDpAS1yq1Xmd-132" vertex="1" connectable="0">
          <mxGeometry x="-0.1795" relative="1" as="geometry">
            <mxPoint as="offset" />
          </mxGeometry>
        </mxCell>
        <mxCell id="fqJWR_jfEDpAS1yq1Xmd-111" value="" style="edgeStyle=orthogonalEdgeStyle;rounded=0;orthogonalLoop=1;jettySize=auto;html=1;entryX=0.006;entryY=0.429;entryDx=0;entryDy=0;entryPerimeter=0;" parent="fqJWR_jfEDpAS1yq1Xmd-133" source="fqJWR_jfEDpAS1yq1Xmd-117" target="fqJWR_jfEDpAS1yq1Xmd-120" edge="1">
          <mxGeometry relative="1" as="geometry" />
        </mxCell>
        <mxCell id="fqJWR_jfEDpAS1yq1Xmd-112" value="no" style="edgeLabel;html=1;align=center;verticalAlign=middle;resizable=0;points=[];" parent="fqJWR_jfEDpAS1yq1Xmd-111" vertex="1" connectable="0">
          <mxGeometry x="-0.125" y="1" relative="1" as="geometry">
            <mxPoint as="offset" />
          </mxGeometry>
        </mxCell>
        <mxCell id="fqJWR_jfEDpAS1yq1Xmd-151" value="" style="group" parent="fqJWR_jfEDpAS1yq1Xmd-133" vertex="1" connectable="0">
          <mxGeometry x="220" y="327" width="95" height="30" as="geometry" />
        </mxCell>
        <mxCell id="fqJWR_jfEDpAS1yq1Xmd-121" value="raise Value Error" style="text;html=1;align=center;verticalAlign=middle;whiteSpace=wrap;rounded=0;" parent="fqJWR_jfEDpAS1yq1Xmd-151" vertex="1">
          <mxGeometry x="37" width="65" height="30" as="geometry" />
        </mxCell>
        <mxCell id="fqJWR_jfEDpAS1yq1Xmd-120" value="" style="shape=sumEllipse;perimeter=ellipsePerimeter;html=1;backgroundOutline=1;" parent="fqJWR_jfEDpAS1yq1Xmd-151" vertex="1">
          <mxGeometry width="30" height="30" as="geometry" />
        </mxCell>
        <mxCell id="fqJWR_jfEDpAS1yq1Xmd-128" value="pressure correction supplied" style="text;html=1;align=center;verticalAlign=middle;whiteSpace=wrap;rounded=0;" parent="fqJWR_jfEDpAS1yq1Xmd-133" vertex="1">
          <mxGeometry x="40" y="399" width="50" height="75" as="geometry" />
        </mxCell>
        <mxCell id="fqJWR_jfEDpAS1yq1Xmd-129" value="" style="rhombus;" parent="fqJWR_jfEDpAS1yq1Xmd-133" vertex="1">
          <mxGeometry x="95" y="421.5" width="30" height="30" as="geometry" />
        </mxCell>
        <mxCell id="fqJWR_jfEDpAS1yq1Xmd-152" value="" style="edgeStyle=orthogonalEdgeStyle;rounded=0;orthogonalLoop=1;jettySize=auto;html=1;" parent="fqJWR_jfEDpAS1yq1Xmd-133" source="fqJWR_jfEDpAS1yq1Xmd-117" target="fqJWR_jfEDpAS1yq1Xmd-129" edge="1">
          <mxGeometry relative="1" as="geometry" />
        </mxCell>
        <mxCell id="fqJWR_jfEDpAS1yq1Xmd-153" value="yes" style="edgeLabel;html=1;align=center;verticalAlign=middle;resizable=0;points=[];" parent="fqJWR_jfEDpAS1yq1Xmd-152" vertex="1" connectable="0">
          <mxGeometry x="-0.0816" y="1" relative="1" as="geometry">
            <mxPoint as="offset" />
          </mxGeometry>
        </mxCell>
        <mxCell id="fqJWR_jfEDpAS1yq1Xmd-154" value="" style="group" parent="fqJWR_jfEDpAS1yq1Xmd-133" vertex="1" connectable="0">
          <mxGeometry x="30" y="320" width="95" height="40" as="geometry" />
        </mxCell>
        <mxCell id="fqJWR_jfEDpAS1yq1Xmd-118" value="pressure extension is &quot;lst&quot;" style="text;html=1;align=center;verticalAlign=middle;whiteSpace=wrap;rounded=0;" parent="fqJWR_jfEDpAS1yq1Xmd-154" vertex="1">
          <mxGeometry width="60" height="40" as="geometry" />
        </mxCell>
        <mxCell id="fqJWR_jfEDpAS1yq1Xmd-117" value="" style="rhombus;" parent="fqJWR_jfEDpAS1yq1Xmd-154" vertex="1">
          <mxGeometry x="65" y="5" width="30" height="30" as="geometry" />
        </mxCell>
        <mxCell id="fqJWR_jfEDpAS1yq1Xmd-155" value="" style="group" parent="fqJWR_jfEDpAS1yq1Xmd-133" vertex="1" connectable="0">
          <mxGeometry x="30" y="225" width="95" height="40" as="geometry" />
        </mxCell>
        <mxCell id="fqJWR_jfEDpAS1yq1Xmd-115" value="pressure extension is &quot;txt&quot;" style="text;html=1;align=center;verticalAlign=middle;whiteSpace=wrap;rounded=0;" parent="fqJWR_jfEDpAS1yq1Xmd-155" vertex="1">
          <mxGeometry width="60" height="40" as="geometry" />
        </mxCell>
        <mxCell id="fqJWR_jfEDpAS1yq1Xmd-114" value="" style="rhombus;" parent="fqJWR_jfEDpAS1yq1Xmd-155" vertex="1">
          <mxGeometry x="65" y="5" width="30" height="30" as="geometry" />
        </mxCell>
        <mxCell id="fqJWR_jfEDpAS1yq1Xmd-156" value="" style="group" parent="fqJWR_jfEDpAS1yq1Xmd-133" vertex="1" connectable="0">
          <mxGeometry x="50" y="599" width="75" height="30" as="geometry" />
        </mxCell>
        <mxCell id="fqJWR_jfEDpAS1yq1Xmd-136" value="" style="ellipse;html=1;shape=endState;fillColor=strokeColor;" parent="fqJWR_jfEDpAS1yq1Xmd-156" vertex="1">
          <mxGeometry x="45" width="30" height="30" as="geometry" />
        </mxCell>
        <mxCell id="fqJWR_jfEDpAS1yq1Xmd-139" value="end: write CSV file" style="text;html=1;align=center;verticalAlign=middle;whiteSpace=wrap;rounded=0;" parent="fqJWR_jfEDpAS1yq1Xmd-156" vertex="1">
          <mxGeometry x="-10" width="55" height="30" as="geometry" />
        </mxCell>
        <mxCell id="fqJWR_jfEDpAS1yq1Xmd-158" value="" style="edgeStyle=orthogonalEdgeStyle;rounded=0;orthogonalLoop=1;jettySize=auto;html=1;endArrow=none;endFill=0;dashed=1;" parent="fqJWR_jfEDpAS1yq1Xmd-133" source="fqJWR_jfEDpAS1yq1Xmd-136" target="fqJWR_jfEDpAS1yq1Xmd-162" edge="1">
          <mxGeometry relative="1" as="geometry">
            <mxPoint x="235" y="614" as="targetPoint" />
          </mxGeometry>
        </mxCell>
        <mxCell id="fqJWR_jfEDpAS1yq1Xmd-162" value="parsed pressure file" style="html=1;whiteSpace=wrap;fillColor=#E5D4E8;fontStyle=1" parent="fqJWR_jfEDpAS1yq1Xmd-133" vertex="1">
          <mxGeometry x="235" y="589" width="110" height="50" as="geometry" />
        </mxCell>
        <mxCell id="fqJWR_jfEDpAS1yq1Xmd-166" value="" style="group" parent="fqJWR_jfEDpAS1yq1Xmd-133" vertex="1" connectable="0">
          <mxGeometry x="30" y="154" width="95" height="30" as="geometry" />
        </mxCell>
        <mxCell id="fqJWR_jfEDpAS1yq1Xmd-143" value="start: read in file" style="text;html=1;align=center;verticalAlign=middle;whiteSpace=wrap;rounded=0;" parent="fqJWR_jfEDpAS1yq1Xmd-166" vertex="1">
          <mxGeometry width="60" height="30" as="geometry" />
        </mxCell>
        <mxCell id="fqJWR_jfEDpAS1yq1Xmd-103" value="" style="ellipse;fillColor=strokeColor;html=1;" parent="fqJWR_jfEDpAS1yq1Xmd-166" vertex="1">
          <mxGeometry x="65" width="30" height="30" as="geometry" />
        </mxCell>
        <mxCell id="fqJWR_jfEDpAS1yq1Xmd-241" value="&lt;b&gt;&lt;font style=&quot;font-size: 9px;&quot;&gt;pressureutils.parse_pressure_file&lt;/font&gt;&lt;/b&gt;" style="text;html=1;align=center;verticalAlign=middle;whiteSpace=wrap;rounded=0;" parent="fqJWR_jfEDpAS1yq1Xmd-133" vertex="1">
          <mxGeometry y="29" width="160" height="21" as="geometry" />
        </mxCell>
        <mxCell id="fqJWR_jfEDpAS1yq1Xmd-159" value="&lt;span style=&quot;text-align: left;&quot;&gt;&lt;b&gt;generate unparsed pressure file list&lt;/b&gt;&lt;/span&gt;" style="shape=umlFrame;whiteSpace=wrap;html=1;pointerEvents=0;recursiveResize=0;container=1;collapsible=0;width=160;" parent="1" vertex="1">
          <mxGeometry x="3" y="-1169" width="340" height="779" as="geometry" />
        </mxCell>
        <mxCell id="fqJWR_jfEDpAS1yq1Xmd-88" style="edgeStyle=orthogonalEdgeStyle;rounded=0;orthogonalLoop=1;jettySize=auto;html=1;entryX=0;entryY=0.5;entryDx=0;entryDy=0;endArrow=none;endFill=0;dashed=1;exitX=0.5;exitY=1;exitDx=0;exitDy=0;" parent="fqJWR_jfEDpAS1yq1Xmd-159" source="fqJWR_jfEDpAS1yq1Xmd-67" target="fqJWR_jfEDpAS1yq1Xmd-85" edge="1">
          <mxGeometry relative="1" as="geometry" />
        </mxCell>
        <mxCell id="fqJWR_jfEDpAS1yq1Xmd-67" value="&lt;b&gt;raw pressure folder&lt;/b&gt;" style="html=1;whiteSpace=wrap;fillColor=#8BC478;" parent="fqJWR_jfEDpAS1yq1Xmd-159" vertex="1">
          <mxGeometry x="42" y="71" width="110" height="50" as="geometry" />
        </mxCell>
        <mxCell id="fqJWR_jfEDpAS1yq1Xmd-96" value="" style="edgeStyle=orthogonalEdgeStyle;rounded=0;orthogonalLoop=1;jettySize=auto;html=1;entryX=0.5;entryY=0;entryDx=0;entryDy=0;" parent="fqJWR_jfEDpAS1yq1Xmd-159" source="fqJWR_jfEDpAS1yq1Xmd-85" target="fqJWR_jfEDpAS1yq1Xmd-172" edge="1">
          <mxGeometry relative="1" as="geometry">
            <mxPoint x="170" y="190" as="targetPoint" />
          </mxGeometry>
        </mxCell>
        <mxCell id="fqJWR_jfEDpAS1yq1Xmd-89" style="edgeStyle=orthogonalEdgeStyle;rounded=0;orthogonalLoop=1;jettySize=auto;html=1;entryX=1;entryY=0.5;entryDx=0;entryDy=0;exitX=0.5;exitY=1;exitDx=0;exitDy=0;dashed=1;endArrow=none;endFill=0;" parent="fqJWR_jfEDpAS1yq1Xmd-159" source="fqJWR_jfEDpAS1yq1Xmd-87" target="fqJWR_jfEDpAS1yq1Xmd-85" edge="1">
          <mxGeometry relative="1" as="geometry" />
        </mxCell>
        <mxCell id="fqJWR_jfEDpAS1yq1Xmd-87" value="&lt;b&gt;parsed pressure folder&lt;/b&gt;" style="html=1;whiteSpace=wrap;fillColor=#8BC478;" parent="fqJWR_jfEDpAS1yq1Xmd-159" vertex="1">
          <mxGeometry x="192" y="71" width="110" height="50" as="geometry" />
        </mxCell>
        <mxCell id="fqJWR_jfEDpAS1yq1Xmd-93" value="" style="ellipse;html=1;shape=endState;fillColor=strokeColor;" parent="fqJWR_jfEDpAS1yq1Xmd-159" vertex="1">
          <mxGeometry x="155" y="644" width="30" height="30" as="geometry" />
        </mxCell>
        <mxCell id="fqJWR_jfEDpAS1yq1Xmd-98" value="&lt;b&gt;parsed pressure file paths&lt;/b&gt;" style="html=1;whiteSpace=wrap;fillColor=#E5D4E8;" parent="fqJWR_jfEDpAS1yq1Xmd-159" vertex="1">
          <mxGeometry x="41" y="689" width="110" height="50" as="geometry" />
        </mxCell>
        <mxCell id="fqJWR_jfEDpAS1yq1Xmd-99" value="unparsed pressure file paths" style="html=1;whiteSpace=wrap;fillColor=#E5D4E8;fontStyle=1" parent="fqJWR_jfEDpAS1yq1Xmd-159" vertex="1">
          <mxGeometry x="191" y="689" width="110" height="50" as="geometry" />
        </mxCell>
        <mxCell id="fqJWR_jfEDpAS1yq1Xmd-100" style="edgeStyle=orthogonalEdgeStyle;rounded=0;orthogonalLoop=1;jettySize=auto;html=1;entryX=1;entryY=0.5;entryDx=0;entryDy=0;exitX=0.5;exitY=0;exitDx=0;exitDy=0;dashed=1;endArrow=none;endFill=0;" parent="fqJWR_jfEDpAS1yq1Xmd-159" source="fqJWR_jfEDpAS1yq1Xmd-99" target="fqJWR_jfEDpAS1yq1Xmd-93" edge="1">
          <mxGeometry relative="1" as="geometry">
            <mxPoint x="177" y="499" as="targetPoint" />
          </mxGeometry>
        </mxCell>
        <mxCell id="fqJWR_jfEDpAS1yq1Xmd-101" style="edgeStyle=orthogonalEdgeStyle;rounded=0;orthogonalLoop=1;jettySize=auto;html=1;entryX=0;entryY=0.5;entryDx=0;entryDy=0;endArrow=none;endFill=0;dashed=1;exitX=0.5;exitY=0;exitDx=0;exitDy=0;" parent="fqJWR_jfEDpAS1yq1Xmd-159" source="fqJWR_jfEDpAS1yq1Xmd-98" target="fqJWR_jfEDpAS1yq1Xmd-93" edge="1">
          <mxGeometry relative="1" as="geometry">
            <mxPoint x="147" y="499" as="targetPoint" />
          </mxGeometry>
        </mxCell>
        <mxCell id="fqJWR_jfEDpAS1yq1Xmd-171" value="" style="edgeStyle=orthogonalEdgeStyle;rounded=0;orthogonalLoop=1;jettySize=auto;html=1;entryX=0.5;entryY=0;entryDx=0;entryDy=0;exitX=0.5;exitY=1;exitDx=0;exitDy=0;" parent="fqJWR_jfEDpAS1yq1Xmd-159" source="fqJWR_jfEDpAS1yq1Xmd-182" target="fqJWR_jfEDpAS1yq1Xmd-93" edge="1">
          <mxGeometry relative="1" as="geometry">
            <mxPoint x="170" y="600" as="sourcePoint" />
            <mxPoint x="170" y="-620" as="targetPoint" />
          </mxGeometry>
        </mxCell>
        <mxCell id="fqJWR_jfEDpAS1yq1Xmd-179" value="end" style="edgeLabel;html=1;align=center;verticalAlign=middle;resizable=0;points=[];" parent="fqJWR_jfEDpAS1yq1Xmd-171" vertex="1" connectable="0">
          <mxGeometry x="0.2583" relative="1" as="geometry">
            <mxPoint y="-8" as="offset" />
          </mxGeometry>
        </mxCell>
        <mxCell id="fqJWR_jfEDpAS1yq1Xmd-190" value="" style="edgeStyle=orthogonalEdgeStyle;rounded=0;orthogonalLoop=1;jettySize=auto;html=1;entryX=0.5;entryY=0;entryDx=0;entryDy=0;" parent="fqJWR_jfEDpAS1yq1Xmd-159" source="fqJWR_jfEDpAS1yq1Xmd-172" target="fqJWR_jfEDpAS1yq1Xmd-173" edge="1">
          <mxGeometry relative="1" as="geometry" />
        </mxCell>
        <mxCell id="fqJWR_jfEDpAS1yq1Xmd-172" value="&lt;b&gt;get_file_extension&lt;/b&gt;" style="html=1;dashed=0;rounded=1;absoluteArcSize=1;arcSize=20;verticalAlign=middle;align=center;whiteSpace=wrap;" parent="fqJWR_jfEDpAS1yq1Xmd-159" vertex="1">
          <mxGeometry x="111.5" y="225" width="123" height="31" as="geometry" />
        </mxCell>
        <mxCell id="fqJWR_jfEDpAS1yq1Xmd-191" style="edgeStyle=orthogonalEdgeStyle;rounded=0;orthogonalLoop=1;jettySize=auto;html=1;entryX=0.5;entryY=0;entryDx=0;entryDy=0;exitX=0.366;exitY=1.005;exitDx=0;exitDy=0;exitPerimeter=0;" parent="fqJWR_jfEDpAS1yq1Xmd-159" source="fqJWR_jfEDpAS1yq1Xmd-173" target="fqJWR_jfEDpAS1yq1Xmd-176" edge="1">
          <mxGeometry relative="1" as="geometry" />
        </mxCell>
        <mxCell id="fqJWR_jfEDpAS1yq1Xmd-173" value="&lt;b&gt;&amp;nbsp; extract_date_from_fname&lt;/b&gt;&lt;div&gt;&lt;div style=&quot;&quot;&gt;&lt;b&gt;&amp;nbsp; -&amp;nbsp;&lt;/b&gt;parse date based on file extension&lt;/div&gt;&lt;/div&gt;" style="html=1;dashed=0;rounded=1;absoluteArcSize=1;arcSize=20;verticalAlign=middle;align=left;whiteSpace=wrap;" parent="fqJWR_jfEDpAS1yq1Xmd-159" vertex="1">
          <mxGeometry x="68" y="287" width="210" height="41" as="geometry" />
        </mxCell>
        <mxCell id="fqJWR_jfEDpAS1yq1Xmd-174" value="" style="group" parent="fqJWR_jfEDpAS1yq1Xmd-159" vertex="1" connectable="0">
          <mxGeometry x="65" y="355" width="95" height="40" as="geometry" />
        </mxCell>
        <mxCell id="fqJWR_jfEDpAS1yq1Xmd-175" value="date in config file range" style="text;html=1;align=center;verticalAlign=middle;whiteSpace=wrap;rounded=0;" parent="fqJWR_jfEDpAS1yq1Xmd-174" vertex="1">
          <mxGeometry width="60" height="40" as="geometry" />
        </mxCell>
        <mxCell id="fqJWR_jfEDpAS1yq1Xmd-176" value="" style="rhombus;" parent="fqJWR_jfEDpAS1yq1Xmd-174" vertex="1">
          <mxGeometry x="65" y="5" width="30" height="30" as="geometry" />
        </mxCell>
        <mxCell id="fqJWR_jfEDpAS1yq1Xmd-197" style="edgeStyle=orthogonalEdgeStyle;rounded=0;orthogonalLoop=1;jettySize=auto;html=1;entryX=0.5;entryY=0;entryDx=0;entryDy=0;" parent="fqJWR_jfEDpAS1yq1Xmd-159" source="fqJWR_jfEDpAS1yq1Xmd-180" target="fqJWR_jfEDpAS1yq1Xmd-182" edge="1">
          <mxGeometry relative="1" as="geometry" />
        </mxCell>
        <mxCell id="fqJWR_jfEDpAS1yq1Xmd-180" value="&lt;b&gt;&amp;nbsp; generate_set_difference&lt;/b&gt;&lt;div&gt;&lt;div style=&quot;&quot;&gt;&lt;b&gt;&amp;nbsp; -&amp;nbsp;&lt;/b&gt;return dates that are&amp;nbsp;&lt;/div&gt;&lt;div style=&quot;&quot;&gt;&amp;nbsp; &amp;nbsp; in &lt;b&gt;&lt;span style=&quot;background-color: rgb(139, 196, 120);&quot;&gt;raw pressure folder&lt;/span&gt;&amp;nbsp;&lt;/b&gt;and&amp;nbsp;&lt;/div&gt;&lt;div style=&quot;&quot;&gt;&amp;nbsp; &amp;nbsp; not in &lt;span&gt;&lt;b style=&quot;&quot;&gt;&lt;span style=&quot;background-color: rgb(139, 196, 120);&quot;&gt;parsed pressure folde&lt;/span&gt;&lt;span style=&quot;background-color: rgb(139, 196, 120);&quot;&gt;r&lt;/span&gt;&lt;/b&gt;&lt;/span&gt;&lt;/div&gt;&lt;/div&gt;" style="html=1;dashed=0;rounded=1;absoluteArcSize=1;arcSize=20;verticalAlign=middle;align=left;whiteSpace=wrap;" parent="fqJWR_jfEDpAS1yq1Xmd-159" vertex="1">
          <mxGeometry x="65" y="432" width="210" height="70" as="geometry" />
        </mxCell>
        <mxCell id="fqJWR_jfEDpAS1yq1Xmd-182" value="&lt;b&gt;&amp;nbsp; generate_fname_from_date&lt;/b&gt;&lt;div&gt;&lt;div style=&quot;&quot;&gt;&lt;b&gt;&amp;nbsp; -&amp;nbsp;&lt;/b&gt;reconstruct file names from extension defined in config file&lt;/div&gt;&lt;/div&gt;" style="html=1;dashed=0;rounded=1;absoluteArcSize=1;arcSize=20;verticalAlign=middle;align=left;whiteSpace=wrap;" parent="fqJWR_jfEDpAS1yq1Xmd-159" vertex="1">
          <mxGeometry x="65" y="534" width="210" height="61" as="geometry" />
        </mxCell>
        <mxCell id="fqJWR_jfEDpAS1yq1Xmd-183" value="" style="group" parent="fqJWR_jfEDpAS1yq1Xmd-159" vertex="1" connectable="0">
          <mxGeometry x="206" y="360" width="95" height="30" as="geometry" />
        </mxCell>
        <mxCell id="fqJWR_jfEDpAS1yq1Xmd-184" value="skip date" style="text;html=1;align=center;verticalAlign=middle;whiteSpace=wrap;rounded=0;" parent="fqJWR_jfEDpAS1yq1Xmd-183" vertex="1">
          <mxGeometry x="37" width="65" height="30" as="geometry" />
        </mxCell>
        <mxCell id="fqJWR_jfEDpAS1yq1Xmd-185" value="" style="shape=sumEllipse;perimeter=ellipsePerimeter;html=1;backgroundOutline=1;" parent="fqJWR_jfEDpAS1yq1Xmd-183" vertex="1">
          <mxGeometry width="30" height="30" as="geometry" />
        </mxCell>
        <mxCell id="fqJWR_jfEDpAS1yq1Xmd-186" value="" style="group" parent="fqJWR_jfEDpAS1yq1Xmd-159" vertex="1" connectable="0">
          <mxGeometry x="143" y="124" width="60" height="60" as="geometry" />
        </mxCell>
        <mxCell id="fqJWR_jfEDpAS1yq1Xmd-85" value="" style="ellipse;fillColor=strokeColor;html=1;" parent="fqJWR_jfEDpAS1yq1Xmd-186" vertex="1">
          <mxGeometry x="15" y="30" width="30" height="30" as="geometry" />
        </mxCell>
        <mxCell id="fqJWR_jfEDpAS1yq1Xmd-94" value="start" style="text;html=1;align=center;verticalAlign=middle;whiteSpace=wrap;rounded=0;" parent="fqJWR_jfEDpAS1yq1Xmd-186" vertex="1">
          <mxGeometry width="60" height="30" as="geometry" />
        </mxCell>
        <mxCell id="fqJWR_jfEDpAS1yq1Xmd-193" value="" style="edgeStyle=orthogonalEdgeStyle;rounded=0;orthogonalLoop=1;jettySize=auto;html=1;" parent="fqJWR_jfEDpAS1yq1Xmd-159" source="fqJWR_jfEDpAS1yq1Xmd-176" target="fqJWR_jfEDpAS1yq1Xmd-185" edge="1">
          <mxGeometry relative="1" as="geometry" />
        </mxCell>
        <mxCell id="fqJWR_jfEDpAS1yq1Xmd-194" value="no" style="edgeLabel;html=1;align=center;verticalAlign=middle;resizable=0;points=[];" parent="fqJWR_jfEDpAS1yq1Xmd-193" vertex="1" connectable="0">
          <mxGeometry x="-0.0435" y="1" relative="1" as="geometry">
            <mxPoint as="offset" />
          </mxGeometry>
        </mxCell>
        <mxCell id="fqJWR_jfEDpAS1yq1Xmd-195" style="edgeStyle=orthogonalEdgeStyle;rounded=0;orthogonalLoop=1;jettySize=auto;html=1;exitX=0.5;exitY=1;exitDx=0;exitDy=0;entryX=0.378;entryY=0.001;entryDx=0;entryDy=0;entryPerimeter=0;" parent="fqJWR_jfEDpAS1yq1Xmd-159" source="fqJWR_jfEDpAS1yq1Xmd-176" target="fqJWR_jfEDpAS1yq1Xmd-180" edge="1">
          <mxGeometry relative="1" as="geometry" />
        </mxCell>
        <mxCell id="fqJWR_jfEDpAS1yq1Xmd-196" value="yes" style="edgeLabel;html=1;align=center;verticalAlign=middle;resizable=0;points=[];" parent="fqJWR_jfEDpAS1yq1Xmd-195" vertex="1" connectable="0">
          <mxGeometry x="-0.2843" y="1" relative="1" as="geometry">
            <mxPoint as="offset" />
          </mxGeometry>
        </mxCell>
        <mxCell id="fqJWR_jfEDpAS1yq1Xmd-240" value="&lt;b&gt;&lt;font style=&quot;font-size: 9px;&quot;&gt;pressureutils.generate_unparsed_pressure_file_list&lt;/font&gt;&lt;/b&gt;" style="text;html=1;align=center;verticalAlign=middle;whiteSpace=wrap;rounded=0;" parent="fqJWR_jfEDpAS1yq1Xmd-159" vertex="1">
          <mxGeometry y="29" width="240" height="30" as="geometry" />
        </mxCell>
        <mxCell id="fqJWR_jfEDpAS1yq1Xmd-160" style="edgeStyle=orthogonalEdgeStyle;rounded=0;orthogonalLoop=1;jettySize=auto;html=1;dashed=1;fillColor=#0050ef;strokeColor=light-dark(#000000,#FFFFFF);" parent="1" source="fqJWR_jfEDpAS1yq1Xmd-99" target="fqJWR_jfEDpAS1yq1Xmd-143" edge="1">
          <mxGeometry relative="1" as="geometry">
            <mxPoint x="430" y="-900" as="targetPoint" />
            <Array as="points">
              <mxPoint x="360" y="-455" />
              <mxPoint x="360" y="-880" />
            </Array>
          </mxGeometry>
        </mxCell>
        <mxCell id="fqJWR_jfEDpAS1yq1Xmd-161" style="edgeStyle=orthogonalEdgeStyle;rounded=0;orthogonalLoop=1;jettySize=auto;html=1;exitX=0.5;exitY=1;exitDx=0;exitDy=0;dashed=1;fillColor=#0050ef;strokeColor=light-dark(#000000,#FFFFFF);entryX=0.061;entryY=0.583;entryDx=0;entryDy=0;entryPerimeter=0;" parent="1" source="fqJWR_jfEDpAS1yq1Xmd-98" target="fqJWR_jfEDpAS1yq1Xmd-139" edge="1">
          <mxGeometry relative="1" as="geometry">
            <Array as="points">
              <mxPoint x="99" y="-410" />
              <mxPoint x="380" y="-410" />
              <mxPoint x="380" y="-433" />
              <mxPoint x="442" y="-433" />
            </Array>
          </mxGeometry>
        </mxCell>
        <mxCell id="fqJWR_jfEDpAS1yq1Xmd-164" value="&lt;b&gt;calculate barometric factor&lt;/b&gt;" style="shape=umlFrame;whiteSpace=wrap;html=1;pointerEvents=0;recursiveResize=0;container=1;collapsible=0;width=160;align=center;" parent="1" vertex="1">
          <mxGeometry x="3" y="-370" width="787" height="330" as="geometry" />
        </mxCell>
        <mxCell id="fqJWR_jfEDpAS1yq1Xmd-247" style="edgeStyle=orthogonalEdgeStyle;rounded=0;orthogonalLoop=1;jettySize=auto;html=1;endArrow=none;endFill=0;dashed=1;" parent="fqJWR_jfEDpAS1yq1Xmd-164" source="fqJWR_jfEDpAS1yq1Xmd-165" target="fqJWR_jfEDpAS1yq1Xmd-170" edge="1">
          <mxGeometry relative="1" as="geometry" />
        </mxCell>
        <mxCell id="fqJWR_jfEDpAS1yq1Xmd-165" value="config file&lt;div&gt;section:&lt;div&gt;config&lt;span style=&quot;font-weight: normal;&quot;&gt;.pressure.location&lt;/span&gt;&lt;/div&gt;&lt;/div&gt;" style="html=1;whiteSpace=wrap;fillColor=#8BC478;fontStyle=1" parent="fqJWR_jfEDpAS1yq1Xmd-164" vertex="1">
          <mxGeometry x="27" y="70" width="136" height="60" as="geometry" />
        </mxCell>
        <mxCell id="fqJWR_jfEDpAS1yq1Xmd-242" value="&lt;b&gt;&lt;font style=&quot;font-size: 9px;&quot;&gt;pressureutils.calculate_barometric_factor&lt;/font&gt;&lt;/b&gt;" style="text;html=1;align=center;verticalAlign=middle;whiteSpace=wrap;rounded=0;" parent="fqJWR_jfEDpAS1yq1Xmd-164" vertex="1">
          <mxGeometry y="30" width="190" height="20" as="geometry" />
        </mxCell>
        <mxCell id="fqJWR_jfEDpAS1yq1Xmd-261" style="edgeStyle=orthogonalEdgeStyle;rounded=0;orthogonalLoop=1;jettySize=auto;html=1;entryX=0.5;entryY=0;entryDx=0;entryDy=0;" parent="fqJWR_jfEDpAS1yq1Xmd-164" source="fqJWR_jfEDpAS1yq1Xmd-249" target="fqJWR_jfEDpAS1yq1Xmd-259" edge="1">
          <mxGeometry relative="1" as="geometry" />
        </mxCell>
        <mxCell id="fqJWR_jfEDpAS1yq1Xmd-263" value="no" style="edgeLabel;html=1;align=center;verticalAlign=middle;resizable=0;points=[];" parent="fqJWR_jfEDpAS1yq1Xmd-261" vertex="1" connectable="0">
          <mxGeometry x="0.28" y="-1" relative="1" as="geometry">
            <mxPoint y="-8" as="offset" />
          </mxGeometry>
        </mxCell>
        <mxCell id="fqJWR_jfEDpAS1yq1Xmd-273" style="edgeStyle=orthogonalEdgeStyle;rounded=0;orthogonalLoop=1;jettySize=auto;html=1;entryX=0;entryY=0.5;entryDx=0;entryDy=0;" parent="fqJWR_jfEDpAS1yq1Xmd-164" source="fqJWR_jfEDpAS1yq1Xmd-249" target="fqJWR_jfEDpAS1yq1Xmd-271" edge="1">
          <mxGeometry relative="1" as="geometry" />
        </mxCell>
        <mxCell id="fqJWR_jfEDpAS1yq1Xmd-274" value="yes" style="edgeLabel;html=1;align=center;verticalAlign=middle;resizable=0;points=[];" parent="fqJWR_jfEDpAS1yq1Xmd-273" vertex="1" connectable="0">
          <mxGeometry x="-0.0099" y="1" relative="1" as="geometry">
            <mxPoint as="offset" />
          </mxGeometry>
        </mxCell>
        <mxCell id="fqJWR_jfEDpAS1yq1Xmd-288" style="edgeStyle=orthogonalEdgeStyle;rounded=0;orthogonalLoop=1;jettySize=auto;html=1;entryX=0;entryY=0.5;entryDx=0;entryDy=0;" parent="fqJWR_jfEDpAS1yq1Xmd-164" source="fqJWR_jfEDpAS1yq1Xmd-256" target="fqJWR_jfEDpAS1yq1Xmd-283" edge="1">
          <mxGeometry relative="1" as="geometry" />
        </mxCell>
        <mxCell id="fqJWR_jfEDpAS1yq1Xmd-256" value="&lt;div style=&quot;&quot;&gt;calculate exponential part of barometric formula:&lt;/div&gt;&lt;div style=&quot;&quot;&gt;&amp;nbsp; B = exp((&lt;i&gt;gMH&lt;/i&gt;)&amp;nbsp;/ (&lt;i&gt;RT&lt;/i&gt;)), where&lt;/div&gt;&lt;div style=&quot;&quot;&gt;&amp;nbsp; H = &lt;span style=&quot;background-color: rgb(139, 196, 120);&quot;&gt;&lt;b style=&quot;&quot;&gt;config file section&lt;/b&gt;.em27_m&lt;/span&gt;&lt;/div&gt;&lt;div style=&quot;&quot;&gt;&amp;nbsp; &amp;nbsp;- &lt;span style=&quot;background-color: rgb(139, 196, 120);&quot;&gt;&lt;b style=&quot;&quot;&gt;config file section&lt;/b&gt;.pressure_sensor_m&lt;/span&gt;&lt;/div&gt;" style="html=1;dashed=0;rounded=1;absoluteArcSize=1;arcSize=20;verticalAlign=middle;align=left;whiteSpace=wrap;" parent="fqJWR_jfEDpAS1yq1Xmd-164" vertex="1">
          <mxGeometry x="397" y="104" width="240" height="110" as="geometry" />
        </mxCell>
        <mxCell id="fqJWR_jfEDpAS1yq1Xmd-258" value="" style="group" parent="fqJWR_jfEDpAS1yq1Xmd-164" vertex="1" connectable="0">
          <mxGeometry x="203.5" y="28" width="65" height="85" as="geometry" />
        </mxCell>
        <mxCell id="fqJWR_jfEDpAS1yq1Xmd-169" value="start: read config section" style="text;html=1;align=center;verticalAlign=middle;whiteSpace=wrap;rounded=0;" parent="fqJWR_jfEDpAS1yq1Xmd-258" vertex="1">
          <mxGeometry y="2" width="65" height="50" as="geometry" />
        </mxCell>
        <mxCell id="fqJWR_jfEDpAS1yq1Xmd-170" value="" style="ellipse;fillColor=strokeColor;html=1;" parent="fqJWR_jfEDpAS1yq1Xmd-258" vertex="1">
          <mxGeometry x="20" y="57" width="30" height="30" as="geometry" />
        </mxCell>
        <mxCell id="fqJWR_jfEDpAS1yq1Xmd-266" style="edgeStyle=orthogonalEdgeStyle;rounded=0;orthogonalLoop=1;jettySize=auto;html=1;entryX=0;entryY=0.5;entryDx=0;entryDy=0;" parent="fqJWR_jfEDpAS1yq1Xmd-164" source="fqJWR_jfEDpAS1yq1Xmd-259" target="fqJWR_jfEDpAS1yq1Xmd-264" edge="1">
          <mxGeometry relative="1" as="geometry" />
        </mxCell>
        <mxCell id="fqJWR_jfEDpAS1yq1Xmd-267" value="no" style="edgeLabel;html=1;align=center;verticalAlign=middle;resizable=0;points=[];" parent="fqJWR_jfEDpAS1yq1Xmd-266" vertex="1" connectable="0">
          <mxGeometry x="0.3" relative="1" as="geometry">
            <mxPoint x="-9" y="-2" as="offset" />
          </mxGeometry>
        </mxCell>
        <mxCell id="fqJWR_jfEDpAS1yq1Xmd-270" style="edgeStyle=orthogonalEdgeStyle;rounded=0;orthogonalLoop=1;jettySize=auto;html=1;exitX=0.5;exitY=1;exitDx=0;exitDy=0;entryX=0;entryY=0.5;entryDx=0;entryDy=0;" parent="fqJWR_jfEDpAS1yq1Xmd-164" source="fqJWR_jfEDpAS1yq1Xmd-259" target="fqJWR_jfEDpAS1yq1Xmd-251" edge="1">
          <mxGeometry relative="1" as="geometry" />
        </mxCell>
        <mxCell id="fqJWR_jfEDpAS1yq1Xmd-275" value="yes" style="edgeLabel;html=1;align=center;verticalAlign=middle;resizable=0;points=[];" parent="fqJWR_jfEDpAS1yq1Xmd-270" vertex="1" connectable="0">
          <mxGeometry x="-0.3297" y="-3" relative="1" as="geometry">
            <mxPoint x="2" y="-15" as="offset" />
          </mxGeometry>
        </mxCell>
        <mxCell id="fqJWR_jfEDpAS1yq1Xmd-260" style="edgeStyle=orthogonalEdgeStyle;rounded=0;orthogonalLoop=1;jettySize=auto;html=1;entryX=0.5;entryY=0;entryDx=0;entryDy=0;" parent="fqJWR_jfEDpAS1yq1Xmd-164" source="fqJWR_jfEDpAS1yq1Xmd-170" target="fqJWR_jfEDpAS1yq1Xmd-249" edge="1">
          <mxGeometry relative="1" as="geometry" />
        </mxCell>
        <mxCell id="fqJWR_jfEDpAS1yq1Xmd-278" style="edgeStyle=orthogonalEdgeStyle;rounded=0;orthogonalLoop=1;jettySize=auto;html=1;entryX=0.5;entryY=0;entryDx=0;entryDy=0;" parent="fqJWR_jfEDpAS1yq1Xmd-164" source="fqJWR_jfEDpAS1yq1Xmd-271" target="fqJWR_jfEDpAS1yq1Xmd-264" edge="1">
          <mxGeometry relative="1" as="geometry" />
        </mxCell>
        <mxCell id="fqJWR_jfEDpAS1yq1Xmd-279" value="yes" style="edgeLabel;html=1;align=center;verticalAlign=middle;resizable=0;points=[];" parent="fqJWR_jfEDpAS1yq1Xmd-278" vertex="1" connectable="0">
          <mxGeometry x="-0.2964" y="2" relative="1" as="geometry">
            <mxPoint as="offset" />
          </mxGeometry>
        </mxCell>
        <mxCell id="fqJWR_jfEDpAS1yq1Xmd-280" style="edgeStyle=orthogonalEdgeStyle;rounded=0;orthogonalLoop=1;jettySize=auto;html=1;exitX=1;exitY=0.5;exitDx=0;exitDy=0;entryX=0;entryY=0.5;entryDx=0;entryDy=0;" parent="fqJWR_jfEDpAS1yq1Xmd-164" source="fqJWR_jfEDpAS1yq1Xmd-271" target="fqJWR_jfEDpAS1yq1Xmd-256" edge="1">
          <mxGeometry relative="1" as="geometry" />
        </mxCell>
        <mxCell id="fqJWR_jfEDpAS1yq1Xmd-281" value="no" style="edgeLabel;html=1;align=center;verticalAlign=middle;resizable=0;points=[];" parent="fqJWR_jfEDpAS1yq1Xmd-280" vertex="1" connectable="0">
          <mxGeometry x="-0.2328" y="2" relative="1" as="geometry">
            <mxPoint as="offset" />
          </mxGeometry>
        </mxCell>
        <mxCell id="fqJWR_jfEDpAS1yq1Xmd-277" value="" style="group" parent="fqJWR_jfEDpAS1yq1Xmd-164" vertex="1" connectable="0">
          <mxGeometry x="313.75" y="215" width="101.5" height="40" as="geometry" />
        </mxCell>
        <mxCell id="fqJWR_jfEDpAS1yq1Xmd-265" value="raise Value Error" style="text;html=1;align=center;verticalAlign=middle;whiteSpace=wrap;rounded=0;" parent="fqJWR_jfEDpAS1yq1Xmd-277" vertex="1">
          <mxGeometry x="36" width="65.5" height="40" as="geometry" />
        </mxCell>
        <mxCell id="fqJWR_jfEDpAS1yq1Xmd-264" value="" style="shape=sumEllipse;perimeter=ellipsePerimeter;html=1;backgroundOutline=1;" parent="fqJWR_jfEDpAS1yq1Xmd-277" vertex="1">
          <mxGeometry y="5" width="30" height="30" as="geometry" />
        </mxCell>
        <mxCell id="fqJWR_jfEDpAS1yq1Xmd-289" style="edgeStyle=orthogonalEdgeStyle;rounded=0;orthogonalLoop=1;jettySize=auto;html=1;endArrow=none;endFill=0;dashed=1;" parent="fqJWR_jfEDpAS1yq1Xmd-164" source="fqJWR_jfEDpAS1yq1Xmd-283" target="fqJWR_jfEDpAS1yq1Xmd-285" edge="1">
          <mxGeometry relative="1" as="geometry" />
        </mxCell>
        <mxCell id="fqJWR_jfEDpAS1yq1Xmd-285" value="&lt;b&gt;barometric factor&lt;/b&gt;" style="html=1;whiteSpace=wrap;fillColor=#E5D4E8;" parent="fqJWR_jfEDpAS1yq1Xmd-164" vertex="1">
          <mxGeometry x="631" y="37.5" width="110" height="50" as="geometry" />
        </mxCell>
        <mxCell id="fqJWR_jfEDpAS1yq1Xmd-287" value="" style="group" parent="fqJWR_jfEDpAS1yq1Xmd-164" vertex="1" connectable="0">
          <mxGeometry x="314" y="279" width="84" height="30" as="geometry" />
        </mxCell>
        <mxCell id="fqJWR_jfEDpAS1yq1Xmd-252" value="return None" style="text;html=1;align=center;verticalAlign=middle;whiteSpace=wrap;rounded=0;" parent="fqJWR_jfEDpAS1yq1Xmd-287" vertex="1">
          <mxGeometry x="31" width="53" height="30" as="geometry" />
        </mxCell>
        <mxCell id="fqJWR_jfEDpAS1yq1Xmd-251" value="" style="shape=sumEllipse;perimeter=ellipsePerimeter;html=1;backgroundOutline=1;" parent="fqJWR_jfEDpAS1yq1Xmd-287" vertex="1">
          <mxGeometry width="30" height="30" as="geometry" />
        </mxCell>
        <mxCell id="fqJWR_jfEDpAS1yq1Xmd-291" value="" style="group" parent="fqJWR_jfEDpAS1yq1Xmd-164" vertex="1" connectable="0">
          <mxGeometry x="276.25" y="88.5" width="105.5" height="86.5" as="geometry" />
        </mxCell>
        <mxCell id="fqJWR_jfEDpAS1yq1Xmd-271" value="" style="rhombus;" parent="fqJWR_jfEDpAS1yq1Xmd-291" vertex="1">
          <mxGeometry x="37.75" y="56.5" width="30" height="30" as="geometry" />
        </mxCell>
        <mxCell id="fqJWR_jfEDpAS1yq1Xmd-272" value="em27_m or pressure_sensor_m&lt;div&gt;is empty&lt;/div&gt;" style="text;html=1;align=center;verticalAlign=middle;whiteSpace=wrap;rounded=0;" parent="fqJWR_jfEDpAS1yq1Xmd-291" vertex="1">
          <mxGeometry width="105.5" height="53.5" as="geometry" />
        </mxCell>
        <mxCell id="fqJWR_jfEDpAS1yq1Xmd-292" value="" style="group" parent="fqJWR_jfEDpAS1yq1Xmd-164" vertex="1" connectable="0">
          <mxGeometry x="37" y="145" width="216" height="30" as="geometry" />
        </mxCell>
        <mxCell id="fqJWR_jfEDpAS1yq1Xmd-249" value="" style="rhombus;" parent="fqJWR_jfEDpAS1yq1Xmd-292" vertex="1">
          <mxGeometry x="186" width="30" height="30" as="geometry" />
        </mxCell>
        <mxCell id="fqJWR_jfEDpAS1yq1Xmd-250" value="use_pressure_correction_factor is True" style="text;html=1;align=right;verticalAlign=middle;whiteSpace=wrap;rounded=0;" parent="fqJWR_jfEDpAS1yq1Xmd-292" vertex="1">
          <mxGeometry width="180" height="30" as="geometry" />
        </mxCell>
        <mxCell id="fqJWR_jfEDpAS1yq1Xmd-293" value="" style="group" parent="fqJWR_jfEDpAS1yq1Xmd-164" vertex="1" connectable="0">
          <mxGeometry x="37" y="220" width="216" height="30" as="geometry" />
        </mxCell>
        <mxCell id="fqJWR_jfEDpAS1yq1Xmd-257" value="use_pressure_correction_factor is False or None" style="text;html=1;align=right;verticalAlign=middle;whiteSpace=wrap;rounded=0;" parent="fqJWR_jfEDpAS1yq1Xmd-293" vertex="1">
          <mxGeometry width="180" height="30" as="geometry" />
        </mxCell>
        <mxCell id="fqJWR_jfEDpAS1yq1Xmd-259" value="" style="rhombus;" parent="fqJWR_jfEDpAS1yq1Xmd-293" vertex="1">
          <mxGeometry x="186" width="30" height="30" as="geometry" />
        </mxCell>
        <mxCell id="fqJWR_jfEDpAS1yq1Xmd-315" value="" style="group" parent="fqJWR_jfEDpAS1yq1Xmd-164" vertex="1" connectable="0">
          <mxGeometry x="671" y="119" width="101" height="70" as="geometry" />
        </mxCell>
        <mxCell id="fqJWR_jfEDpAS1yq1Xmd-283" value="" style="ellipse;html=1;shape=endState;fillColor=strokeColor;" parent="fqJWR_jfEDpAS1yq1Xmd-315" vertex="1">
          <mxGeometry y="25" width="30" height="30" as="geometry" />
        </mxCell>
        <mxCell id="fqJWR_jfEDpAS1yq1Xmd-284" value="end: return barometric factor for location" style="text;html=1;align=center;verticalAlign=middle;whiteSpace=wrap;rounded=0;" parent="fqJWR_jfEDpAS1yq1Xmd-315" vertex="1">
          <mxGeometry x="28" width="73" height="70" as="geometry" />
        </mxCell>
        <mxCell id="fqJWR_jfEDpAS1yq1Xmd-198" value="&lt;b&gt;parse pressure folder&lt;/b&gt;" style="shape=umlFrame;whiteSpace=wrap;html=1;pointerEvents=0;recursiveResize=0;container=1;collapsible=0;width=160;align=center;" parent="1" vertex="1">
          <mxGeometry y="-1580" width="819" height="346" as="geometry" />
        </mxCell>
        <mxCell id="fqJWR_jfEDpAS1yq1Xmd-213" style="edgeStyle=orthogonalEdgeStyle;rounded=0;orthogonalLoop=1;jettySize=auto;html=1;entryX=0;entryY=0.5;entryDx=0;entryDy=0;" parent="fqJWR_jfEDpAS1yq1Xmd-198" source="fqJWR_jfEDpAS1yq1Xmd-199" target="fqJWR_jfEDpAS1yq1Xmd-200" edge="1">
          <mxGeometry relative="1" as="geometry" />
        </mxCell>
        <mxCell id="fqJWR_jfEDpAS1yq1Xmd-199" value="&lt;b&gt;&lt;font face=&quot;Helvetica&quot; style=&quot;font-size: 12px;&quot;&gt;generate_unparsed_pressure_file_list&lt;/font&gt;&lt;/b&gt;" style="html=1;dashed=0;rounded=1;absoluteArcSize=1;arcSize=20;verticalAlign=middle;align=center;whiteSpace=wrap;" parent="fqJWR_jfEDpAS1yq1Xmd-198" vertex="1">
          <mxGeometry x="107.5" y="165.5" width="235" height="41" as="geometry" />
        </mxCell>
        <mxCell id="fqJWR_jfEDpAS1yq1Xmd-226" style="edgeStyle=orthogonalEdgeStyle;rounded=0;orthogonalLoop=1;jettySize=auto;html=1;" parent="fqJWR_jfEDpAS1yq1Xmd-198" source="fqJWR_jfEDpAS1yq1Xmd-200" target="fqJWR_jfEDpAS1yq1Xmd-201" edge="1">
          <mxGeometry relative="1" as="geometry" />
        </mxCell>
        <mxCell id="fqJWR_jfEDpAS1yq1Xmd-237" style="edgeStyle=orthogonalEdgeStyle;rounded=0;orthogonalLoop=1;jettySize=auto;html=1;exitX=0.5;exitY=1;exitDx=0;exitDy=0;entryX=0.5;entryY=0;entryDx=0;entryDy=0;dashed=1;" parent="fqJWR_jfEDpAS1yq1Xmd-198" source="fqJWR_jfEDpAS1yq1Xmd-200" target="fqJWR_jfEDpAS1yq1Xmd-236" edge="1">
          <mxGeometry relative="1" as="geometry" />
        </mxCell>
        <mxCell id="fqJWR_jfEDpAS1yq1Xmd-238" value="output" style="edgeLabel;html=1;align=center;verticalAlign=middle;resizable=0;points=[];" parent="fqJWR_jfEDpAS1yq1Xmd-237" vertex="1" connectable="0">
          <mxGeometry x="-0.0935" relative="1" as="geometry">
            <mxPoint x="-2" y="-4" as="offset" />
          </mxGeometry>
        </mxCell>
        <mxCell id="fqJWR_jfEDpAS1yq1Xmd-200" value="&lt;font face=&quot;Helvetica&quot; style=&quot;font-size: 12px;&quot;&gt;&lt;b style=&quot;&quot;&gt;calculate_barometric_factor&lt;/b&gt;&lt;/font&gt;" style="html=1;dashed=0;rounded=1;absoluteArcSize=1;arcSize=20;verticalAlign=middle;align=center;whiteSpace=wrap;" parent="fqJWR_jfEDpAS1yq1Xmd-198" vertex="1">
          <mxGeometry x="372" y="165.5" width="180" height="41" as="geometry" />
        </mxCell>
        <mxCell id="fqJWR_jfEDpAS1yq1Xmd-230" style="edgeStyle=orthogonalEdgeStyle;rounded=0;orthogonalLoop=1;jettySize=auto;html=1;entryX=0;entryY=0.5;entryDx=0;entryDy=0;" parent="fqJWR_jfEDpAS1yq1Xmd-198" source="fqJWR_jfEDpAS1yq1Xmd-201" target="fqJWR_jfEDpAS1yq1Xmd-228" edge="1">
          <mxGeometry relative="1" as="geometry" />
        </mxCell>
        <mxCell id="fqJWR_jfEDpAS1yq1Xmd-201" value="&lt;b&gt;&lt;font face=&quot;Helvetica&quot; style=&quot;font-size: 12px;&quot;&gt;parse_pressure_file&lt;/font&gt;&lt;/b&gt;" style="html=1;dashed=0;rounded=1;absoluteArcSize=1;arcSize=20;verticalAlign=middle;align=center;whiteSpace=wrap;" parent="fqJWR_jfEDpAS1yq1Xmd-198" vertex="1">
          <mxGeometry x="586" y="165.5" width="130" height="41" as="geometry" />
        </mxCell>
        <mxCell id="fqJWR_jfEDpAS1yq1Xmd-208" style="edgeStyle=orthogonalEdgeStyle;rounded=0;orthogonalLoop=1;jettySize=auto;html=1;entryX=0.5;entryY=0;entryDx=0;entryDy=0;dashed=1;exitX=0.285;exitY=1.008;exitDx=0;exitDy=0;exitPerimeter=0;" parent="fqJWR_jfEDpAS1yq1Xmd-198" source="fqJWR_jfEDpAS1yq1Xmd-205" target="fqJWR_jfEDpAS1yq1Xmd-199" edge="1">
          <mxGeometry relative="1" as="geometry" />
        </mxCell>
        <mxCell id="fqJWR_jfEDpAS1yq1Xmd-209" value="input" style="edgeLabel;html=1;align=center;verticalAlign=middle;resizable=0;points=[];" parent="fqJWR_jfEDpAS1yq1Xmd-208" vertex="1" connectable="0">
          <mxGeometry x="-0.3992" relative="1" as="geometry">
            <mxPoint y="2" as="offset" />
          </mxGeometry>
        </mxCell>
        <mxCell id="fqJWR_jfEDpAS1yq1Xmd-205" value="&lt;b&gt;config.pressure.location&lt;/b&gt;&lt;div&gt;&lt;b&gt;location&lt;/b&gt;.raw_pressure_foder&lt;/div&gt;&lt;div&gt;&lt;b style=&quot;background-color: initial;&quot;&gt;location&lt;/b&gt;.raw_file_extension&lt;/div&gt;&lt;div&gt;&lt;b style=&quot;background-color: initial;&quot;&gt;location&lt;/b&gt;.parsed_pressure_folder&lt;/div&gt;&lt;div&gt;&lt;b style=&quot;background-color: initial;&quot;&gt;location&lt;/b&gt;.start_date&lt;/div&gt;&lt;div&gt;&lt;b style=&quot;background-color: initial;&quot;&gt;location&lt;/b&gt;.end_date (optional)&lt;/div&gt;" style="html=1;whiteSpace=wrap;fillColor=#8BC478;align=left;" parent="fqJWR_jfEDpAS1yq1Xmd-198" vertex="1">
          <mxGeometry x="170" y="21" width="190" height="100" as="geometry" />
        </mxCell>
        <mxCell id="fqJWR_jfEDpAS1yq1Xmd-206" value="&lt;b&gt;config.pressure.location&lt;br&gt;&lt;/b&gt;&lt;div&gt;&lt;b style=&quot;background-color: initial;&quot;&gt;location&lt;/b&gt;.use_pressure_correction_factor&lt;/div&gt;&lt;div&gt;&lt;b style=&quot;background-color: initial;&quot;&gt;location&lt;/b&gt;.em27_m&lt;/div&gt;&lt;div&gt;&lt;b style=&quot;background-color: initial;&quot;&gt;location&lt;/b&gt;.pressure_sensor_m&lt;/div&gt;" style="html=1;whiteSpace=wrap;fillColor=#8BC478;align=left;" parent="fqJWR_jfEDpAS1yq1Xmd-198" vertex="1">
          <mxGeometry x="372" y="51" width="228" height="70" as="geometry" />
        </mxCell>
        <mxCell id="fqJWR_jfEDpAS1yq1Xmd-207" style="edgeStyle=orthogonalEdgeStyle;rounded=0;orthogonalLoop=1;jettySize=auto;html=1;entryX=0;entryY=0.5;entryDx=0;entryDy=0;" parent="fqJWR_jfEDpAS1yq1Xmd-198" source="fqJWR_jfEDpAS1yq1Xmd-203" target="fqJWR_jfEDpAS1yq1Xmd-199" edge="1">
          <mxGeometry relative="1" as="geometry">
            <mxPoint x="126.00000000000023" y="206.50000000000023" as="targetPoint" />
          </mxGeometry>
        </mxCell>
        <mxCell id="fqJWR_jfEDpAS1yq1Xmd-211" style="edgeStyle=orthogonalEdgeStyle;rounded=0;orthogonalLoop=1;jettySize=auto;html=1;endArrow=none;endFill=0;dashed=1;exitX=0.454;exitY=0.995;exitDx=0;exitDy=0;exitPerimeter=0;" parent="fqJWR_jfEDpAS1yq1Xmd-198" source="fqJWR_jfEDpAS1yq1Xmd-210" target="fqJWR_jfEDpAS1yq1Xmd-203" edge="1">
          <mxGeometry relative="1" as="geometry" />
        </mxCell>
        <mxCell id="fqJWR_jfEDpAS1yq1Xmd-210" value="&lt;b&gt;config file&lt;/b&gt;" style="html=1;whiteSpace=wrap;fillColor=#8BC478;" parent="fqJWR_jfEDpAS1yq1Xmd-198" vertex="1">
          <mxGeometry x="13" y="75" width="110" height="50" as="geometry" />
        </mxCell>
        <mxCell id="fqJWR_jfEDpAS1yq1Xmd-214" style="edgeStyle=orthogonalEdgeStyle;rounded=0;orthogonalLoop=1;jettySize=auto;html=1;entryX=0.5;entryY=0;entryDx=0;entryDy=0;dashed=1;exitX=0.393;exitY=1.021;exitDx=0;exitDy=0;exitPerimeter=0;" parent="fqJWR_jfEDpAS1yq1Xmd-198" source="fqJWR_jfEDpAS1yq1Xmd-206" target="fqJWR_jfEDpAS1yq1Xmd-200" edge="1">
          <mxGeometry relative="1" as="geometry" />
        </mxCell>
        <mxCell id="fqJWR_jfEDpAS1yq1Xmd-215" value="input" style="edgeLabel;html=1;align=center;verticalAlign=middle;resizable=0;points=[];" parent="fqJWR_jfEDpAS1yq1Xmd-214" vertex="1" connectable="0">
          <mxGeometry x="-0.2261" y="-1" relative="1" as="geometry">
            <mxPoint as="offset" />
          </mxGeometry>
        </mxCell>
        <mxCell id="fqJWR_jfEDpAS1yq1Xmd-294" style="edgeStyle=orthogonalEdgeStyle;rounded=0;orthogonalLoop=1;jettySize=auto;html=1;exitX=0.722;exitY=0.994;exitDx=0;exitDy=0;entryX=0.5;entryY=1;entryDx=0;entryDy=0;dashed=1;endArrow=none;endFill=0;exitPerimeter=0;" parent="fqJWR_jfEDpAS1yq1Xmd-198" source="fqJWR_jfEDpAS1yq1Xmd-216" target="fqJWR_jfEDpAS1yq1Xmd-201" edge="1">
          <mxGeometry relative="1" as="geometry" />
        </mxCell>
        <mxCell id="fqJWR_jfEDpAS1yq1Xmd-216" value="&lt;b&gt;unparsed pressure file paths&lt;/b&gt;" style="html=1;whiteSpace=wrap;fillColor=#E5D4E8;gradientColor=#8BC478;gradientDirection=east;" parent="fqJWR_jfEDpAS1yq1Xmd-198" vertex="1">
          <mxGeometry x="241" y="250" width="110" height="43" as="geometry" />
        </mxCell>
        <mxCell id="fqJWR_jfEDpAS1yq1Xmd-217" value="&lt;b&gt;parsed pressure file paths&lt;/b&gt;" style="html=1;whiteSpace=wrap;fillColor=#E5D4E8;gradientColor=#8BC478;gradientDirection=east;" parent="fqJWR_jfEDpAS1yq1Xmd-198" vertex="1">
          <mxGeometry x="105.5" y="250" width="110" height="43" as="geometry" />
        </mxCell>
        <mxCell id="fqJWR_jfEDpAS1yq1Xmd-218" style="edgeStyle=orthogonalEdgeStyle;rounded=0;orthogonalLoop=1;jettySize=auto;html=1;entryX=0.505;entryY=-0.1;entryDx=0;entryDy=0;entryPerimeter=0;dashed=1;" parent="fqJWR_jfEDpAS1yq1Xmd-198" source="fqJWR_jfEDpAS1yq1Xmd-199" target="fqJWR_jfEDpAS1yq1Xmd-217" edge="1">
          <mxGeometry relative="1" as="geometry" />
        </mxCell>
        <mxCell id="fqJWR_jfEDpAS1yq1Xmd-219" style="edgeStyle=orthogonalEdgeStyle;rounded=0;orthogonalLoop=1;jettySize=auto;html=1;entryX=0.455;entryY=0;entryDx=0;entryDy=0;entryPerimeter=0;dashed=1;" parent="fqJWR_jfEDpAS1yq1Xmd-198" source="fqJWR_jfEDpAS1yq1Xmd-199" target="fqJWR_jfEDpAS1yq1Xmd-216" edge="1">
          <mxGeometry relative="1" as="geometry" />
        </mxCell>
        <mxCell id="fqJWR_jfEDpAS1yq1Xmd-220" value="output" style="edgeLabel;html=1;align=center;verticalAlign=middle;resizable=0;points=[];" parent="fqJWR_jfEDpAS1yq1Xmd-219" vertex="1" connectable="0">
          <mxGeometry x="-0.7933" y="-1" relative="1" as="geometry">
            <mxPoint x="-1" y="-2" as="offset" />
          </mxGeometry>
        </mxCell>
        <mxCell id="fqJWR_jfEDpAS1yq1Xmd-231" value="&lt;b&gt;parsed pressure folder&lt;/b&gt;" style="html=1;whiteSpace=wrap;fillColor=#E5D4E8;" parent="fqJWR_jfEDpAS1yq1Xmd-198" vertex="1">
          <mxGeometry x="696" y="250" width="110" height="50" as="geometry" />
        </mxCell>
        <mxCell id="fqJWR_jfEDpAS1yq1Xmd-232" style="edgeStyle=orthogonalEdgeStyle;rounded=0;orthogonalLoop=1;jettySize=auto;html=1;endArrow=none;endFill=0;dashed=1;entryX=0.672;entryY=-0.002;entryDx=0;entryDy=0;entryPerimeter=0;" parent="fqJWR_jfEDpAS1yq1Xmd-198" source="fqJWR_jfEDpAS1yq1Xmd-228" target="fqJWR_jfEDpAS1yq1Xmd-231" edge="1">
          <mxGeometry relative="1" as="geometry">
            <mxPoint x="770" y="250" as="targetPoint" />
          </mxGeometry>
        </mxCell>
        <mxCell id="fqJWR_jfEDpAS1yq1Xmd-233" value="" style="group" parent="fqJWR_jfEDpAS1yq1Xmd-198" vertex="1" connectable="0">
          <mxGeometry x="742.5" y="141" width="55" height="60" as="geometry" />
        </mxCell>
        <mxCell id="fqJWR_jfEDpAS1yq1Xmd-229" value="end" style="text;html=1;align=center;verticalAlign=middle;whiteSpace=wrap;rounded=0;" parent="fqJWR_jfEDpAS1yq1Xmd-233" vertex="1">
          <mxGeometry width="55" height="30" as="geometry" />
        </mxCell>
        <mxCell id="fqJWR_jfEDpAS1yq1Xmd-228" value="" style="ellipse;html=1;shape=endState;fillColor=strokeColor;" parent="fqJWR_jfEDpAS1yq1Xmd-233" vertex="1">
          <mxGeometry x="12.5" y="30" width="30" height="30" as="geometry" />
        </mxCell>
        <mxCell id="fqJWR_jfEDpAS1yq1Xmd-235" value="&lt;font style=&quot;font-size: 9px;&quot;&gt;&lt;b&gt;pressureutils.parse_pressure_folder&lt;/b&gt;&lt;/font&gt;" style="text;html=1;align=center;verticalAlign=middle;whiteSpace=wrap;rounded=0;" parent="fqJWR_jfEDpAS1yq1Xmd-198" vertex="1">
          <mxGeometry y="32" width="170" height="19" as="geometry" />
        </mxCell>
        <mxCell id="fqJWR_jfEDpAS1yq1Xmd-239" style="edgeStyle=orthogonalEdgeStyle;rounded=0;orthogonalLoop=1;jettySize=auto;html=1;exitX=0.741;exitY=0.991;exitDx=0;exitDy=0;entryX=0.5;entryY=1;entryDx=0;entryDy=0;dashed=1;exitPerimeter=0;" parent="fqJWR_jfEDpAS1yq1Xmd-198" source="fqJWR_jfEDpAS1yq1Xmd-236" target="fqJWR_jfEDpAS1yq1Xmd-201" edge="1">
          <mxGeometry relative="1" as="geometry" />
        </mxCell>
        <mxCell id="fqJWR_jfEDpAS1yq1Xmd-236" value="&lt;b&gt;pressure correction factor&lt;/b&gt;" style="html=1;whiteSpace=wrap;fillColor=#E5D4E8;gradientColor=#8BC478;gradientDirection=east;" parent="fqJWR_jfEDpAS1yq1Xmd-198" vertex="1">
          <mxGeometry x="407" y="250" width="110" height="43" as="geometry" />
        </mxCell>
        <mxCell id="fqJWR_jfEDpAS1yq1Xmd-221" style="edgeStyle=orthogonalEdgeStyle;rounded=0;orthogonalLoop=1;jettySize=auto;html=1;exitX=0.75;exitY=1;exitDx=0;exitDy=0;dashed=1;" parent="fqJWR_jfEDpAS1yq1Xmd-198" source="fqJWR_jfEDpAS1yq1Xmd-217" target="fqJWR_jfEDpAS1yq1Xmd-201" edge="1">
          <mxGeometry relative="1" as="geometry" />
        </mxCell>
        <mxCell id="fqJWR_jfEDpAS1yq1Xmd-224" value="&amp;nbsp;input" style="edgeLabel;html=1;align=center;verticalAlign=middle;resizable=0;points=[];" parent="fqJWR_jfEDpAS1yq1Xmd-221" vertex="1" connectable="0">
          <mxGeometry x="0.042" relative="1" as="geometry">
            <mxPoint x="176" y="-39" as="offset" />
          </mxGeometry>
        </mxCell>
        <mxCell id="fqJWR_jfEDpAS1yq1Xmd-372" value="" style="group" parent="fqJWR_jfEDpAS1yq1Xmd-198" vertex="1" connectable="0">
          <mxGeometry x="43.5" y="171" width="34.5" height="59" as="geometry" />
        </mxCell>
        <mxCell id="fqJWR_jfEDpAS1yq1Xmd-204" value="start" style="text;html=1;align=center;verticalAlign=middle;whiteSpace=wrap;rounded=0;" parent="fqJWR_jfEDpAS1yq1Xmd-372" vertex="1">
          <mxGeometry y="30" width="34.5" height="29" as="geometry" />
        </mxCell>
        <mxCell id="fqJWR_jfEDpAS1yq1Xmd-203" value="" style="ellipse;fillColor=strokeColor;html=1;" parent="fqJWR_jfEDpAS1yq1Xmd-372" vertex="1">
          <mxGeometry x="4.5" width="30" height="30" as="geometry" />
        </mxCell>
        <mxCell id="fqJWR_jfEDpAS1yq1Xmd-290" style="edgeStyle=orthogonalEdgeStyle;rounded=0;orthogonalLoop=1;jettySize=auto;html=1;exitX=1;exitY=0.5;exitDx=0;exitDy=0;dashed=1;fillColor=#0050ef;strokeColor=light-dark(#000000,#FFFFFF);entryX=1;entryY=0.5;entryDx=0;entryDy=0;" parent="1" source="fqJWR_jfEDpAS1yq1Xmd-285" target="fqJWR_jfEDpAS1yq1Xmd-124" edge="1">
          <mxGeometry relative="1" as="geometry">
            <mxPoint x="761.03" y="-334" as="sourcePoint" />
            <mxPoint x="1102.03" y="-360" as="targetPoint" />
            <Array as="points">
              <mxPoint x="810" y="-307" />
              <mxPoint x="810" y="-613" />
            </Array>
          </mxGeometry>
        </mxCell>
        <mxCell id="fqJWR_jfEDpAS1yq1Xmd-371" value="" style="group" parent="1" vertex="1" connectable="0">
          <mxGeometry x="40" y="-1221.285815602837" width="661.78" height="22.912411347517946" as="geometry" />
        </mxCell>
        <mxCell id="fqJWR_jfEDpAS1yq1Xmd-349" value="" style="group" parent="fqJWR_jfEDpAS1yq1Xmd-371" vertex="1" connectable="0">
          <mxGeometry y="1.2858156028369194" width="63.890357142857134" height="21.27659574468085" as="geometry" />
        </mxCell>
        <mxCell id="fqJWR_jfEDpAS1yq1Xmd-350" value="" style="whiteSpace=wrap;html=1;aspect=fixed;fillColor=#8BC478;" parent="fqJWR_jfEDpAS1yq1Xmd-349" vertex="1">
          <mxGeometry width="21.06275290963531" height="21.06275290963531" as="geometry" />
        </mxCell>
        <mxCell id="fqJWR_jfEDpAS1yq1Xmd-351" value="&lt;b&gt;&lt;font style=&quot;font-size: 10px;&quot;&gt;input&lt;/font&gt;&lt;/b&gt;" style="text;html=1;align=center;verticalAlign=middle;whiteSpace=wrap;rounded=0;" parent="fqJWR_jfEDpAS1yq1Xmd-349" vertex="1">
          <mxGeometry x="21.76484693877551" width="42.12551020408163" height="21.27659574468085" as="geometry" />
        </mxCell>
        <mxCell id="fqJWR_jfEDpAS1yq1Xmd-352" value="" style="endArrow=none;dashed=1;html=1;rounded=0;" parent="fqJWR_jfEDpAS1yq1Xmd-349" edge="1">
          <mxGeometry width="50" height="50" relative="1" as="geometry">
            <mxPoint x="53.358979591836736" y="21.099290780141843" as="sourcePoint" />
            <mxPoint x="32.29622448979592" y="21.099290780141843" as="targetPoint" />
            <Array as="points">
              <mxPoint x="39.317142857142855" y="21.099290780141843" />
            </Array>
          </mxGeometry>
        </mxCell>
        <mxCell id="fqJWR_jfEDpAS1yq1Xmd-353" value="" style="group" parent="fqJWR_jfEDpAS1yq1Xmd-371" vertex="1" connectable="0">
          <mxGeometry x="159.99683673469391" y="1.2858156028369194" width="70" height="21.28" as="geometry" />
        </mxCell>
        <mxCell id="fqJWR_jfEDpAS1yq1Xmd-354" value="" style="ellipse;fillColor=strokeColor;html=1;" parent="fqJWR_jfEDpAS1yq1Xmd-353" vertex="1">
          <mxGeometry width="21.062755102040814" height="21.27659574468085" as="geometry" />
        </mxCell>
        <mxCell id="fqJWR_jfEDpAS1yq1Xmd-355" value="&lt;font style=&quot;font-size: 10px;&quot;&gt;start node&lt;/font&gt;" style="text;html=1;align=center;verticalAlign=middle;whiteSpace=wrap;rounded=0;" parent="fqJWR_jfEDpAS1yq1Xmd-353" vertex="1">
          <mxGeometry x="23.26" width="48.74" height="21.28" as="geometry" />
        </mxCell>
        <mxCell id="fqJWR_jfEDpAS1yq1Xmd-356" value="" style="group" parent="fqJWR_jfEDpAS1yq1Xmd-371" vertex="1" connectable="0">
          <mxGeometry x="330.0020408163266" y="1.2858156028369194" width="80" height="21.28" as="geometry" />
        </mxCell>
        <mxCell id="fqJWR_jfEDpAS1yq1Xmd-357" value="" style="shape=sumEllipse;perimeter=ellipsePerimeter;html=1;backgroundOutline=1;fontStyle=0" parent="fqJWR_jfEDpAS1yq1Xmd-356" vertex="1">
          <mxGeometry width="21.06275510204082" height="21.27659574468085" as="geometry" />
        </mxCell>
        <mxCell id="fqJWR_jfEDpAS1yq1Xmd-358" value="&lt;font style=&quot;font-size: 10px;&quot;&gt;break node&lt;/font&gt;" style="text;html=1;align=center;verticalAlign=middle;whiteSpace=wrap;rounded=0;fontStyle=0" parent="fqJWR_jfEDpAS1yq1Xmd-356" vertex="1">
          <mxGeometry x="25.67" width="54.33" height="21.28" as="geometry" />
        </mxCell>
        <mxCell id="fqJWR_jfEDpAS1yq1Xmd-359" value="&lt;font style=&quot;font-size: 10px;&quot;&gt;action&lt;/font&gt;" style="rounded=1;whiteSpace=wrap;html=1;" parent="fqJWR_jfEDpAS1yq1Xmd-371" vertex="1">
          <mxGeometry x="519.9200000000001" y="0.005815602836719336" width="63.19" height="19.65" as="geometry" />
        </mxCell>
        <mxCell id="fqJWR_jfEDpAS1yq1Xmd-360" value="" style="group" parent="fqJWR_jfEDpAS1yq1Xmd-371" vertex="1" connectable="0">
          <mxGeometry x="80" y="1.634609929078124" width="63.890357142857134" height="21.27659574468085" as="geometry" />
        </mxCell>
        <mxCell id="fqJWR_jfEDpAS1yq1Xmd-361" value="" style="whiteSpace=wrap;html=1;aspect=fixed;fillColor=#E5D4E8;" parent="fqJWR_jfEDpAS1yq1Xmd-360" vertex="1">
          <mxGeometry width="21.06275290963531" height="21.06275290963531" as="geometry" />
        </mxCell>
        <mxCell id="fqJWR_jfEDpAS1yq1Xmd-362" value="&lt;b&gt;&lt;font style=&quot;font-size: 10px;&quot;&gt;output&lt;/font&gt;&lt;/b&gt;" style="text;html=1;align=center;verticalAlign=middle;whiteSpace=wrap;rounded=0;" parent="fqJWR_jfEDpAS1yq1Xmd-360" vertex="1">
          <mxGeometry x="21.76484693877551" width="42.12551020408163" height="21.27659574468085" as="geometry" />
        </mxCell>
        <mxCell id="fqJWR_jfEDpAS1yq1Xmd-363" value="" style="endArrow=none;dashed=1;html=1;rounded=0;" parent="fqJWR_jfEDpAS1yq1Xmd-360" edge="1">
          <mxGeometry width="50" height="50" relative="1" as="geometry">
            <mxPoint x="53.358979591836736" y="21.099290780141843" as="sourcePoint" />
            <mxPoint x="32.29622448979592" y="21.099290780141843" as="targetPoint" />
            <Array as="points">
              <mxPoint x="39.317142857142855" y="21.099290780141843" />
            </Array>
          </mxGeometry>
        </mxCell>
        <mxCell id="fqJWR_jfEDpAS1yq1Xmd-364" value="" style="group" parent="fqJWR_jfEDpAS1yq1Xmd-371" vertex="1" connectable="0">
          <mxGeometry x="250.00102040816324" y="0.004609929078014829" width="69.5070918367347" height="21.27659574468085" as="geometry" />
        </mxCell>
        <mxCell id="fqJWR_jfEDpAS1yq1Xmd-365" value="" style="ellipse;html=1;shape=endState;fillColor=strokeColor;" parent="fqJWR_jfEDpAS1yq1Xmd-364" vertex="1">
          <mxGeometry width="21.06275510204082" height="21.27659574468085" as="geometry" />
        </mxCell>
        <mxCell id="fqJWR_jfEDpAS1yq1Xmd-366" value="&lt;font style=&quot;font-size: 10px;&quot;&gt;end node&lt;/font&gt;" style="text;html=1;align=center;verticalAlign=middle;whiteSpace=wrap;rounded=0;" parent="fqJWR_jfEDpAS1yq1Xmd-364" vertex="1">
          <mxGeometry x="22.06275510204082" width="48.444336734693884" height="21.27659574468085" as="geometry" />
        </mxCell>
        <mxCell id="fqJWR_jfEDpAS1yq1Xmd-367" value="&lt;b&gt;&lt;font style=&quot;font-size: 10px;&quot;&gt;function_name&lt;/font&gt;&lt;/b&gt;" style="text;html=1;align=center;verticalAlign=middle;whiteSpace=wrap;rounded=0;" parent="fqJWR_jfEDpAS1yq1Xmd-371" vertex="1">
          <mxGeometry x="599.9959183673469" y="1.6358156028370558" width="61.78408163265306" height="21.27659574468085" as="geometry" />
        </mxCell>
        <mxCell id="fqJWR_jfEDpAS1yq1Xmd-368" value="" style="group" parent="fqJWR_jfEDpAS1yq1Xmd-371" vertex="1" connectable="0">
          <mxGeometry x="420.00204081632654" width="90" height="21.990000000000002" as="geometry" />
        </mxCell>
        <mxCell id="fqJWR_jfEDpAS1yq1Xmd-369" value="" style="rhombus;fontStyle=0" parent="fqJWR_jfEDpAS1yq1Xmd-368" vertex="1">
          <mxGeometry width="21.062755102040814" height="21.27659574468085" as="geometry" />
        </mxCell>
        <mxCell id="fqJWR_jfEDpAS1yq1Xmd-370" value="&lt;font style=&quot;font-size: 10px;&quot;&gt;decision node&lt;/font&gt;" style="text;html=1;align=center;verticalAlign=middle;whiteSpace=wrap;rounded=0;fontStyle=0" parent="fqJWR_jfEDpAS1yq1Xmd-368" vertex="1">
          <mxGeometry x="21.19" y="0.71" width="68.81" height="21.28" as="geometry" />
        </mxCell>
        <mxCell id="fqJWR_jfEDpAS1yq1Xmd-373" value="" style="group" parent="1" vertex="1" connectable="0">
          <mxGeometry x="402" y="-1140" width="331.61" height="50.004184397163044" as="geometry" />
        </mxCell>
        <mxCell id="fqJWR_jfEDpAS1yq1Xmd-323" value="" style="group" parent="fqJWR_jfEDpAS1yq1Xmd-373" vertex="1" connectable="0">
          <mxGeometry width="63.890357142857134" height="21.27659574468085" as="geometry" />
        </mxCell>
        <mxCell id="fqJWR_jfEDpAS1yq1Xmd-324" value="" style="whiteSpace=wrap;html=1;aspect=fixed;fillColor=#8BC478;" parent="fqJWR_jfEDpAS1yq1Xmd-323" vertex="1">
          <mxGeometry width="21.06275290963531" height="21.06275290963531" as="geometry" />
        </mxCell>
        <mxCell id="fqJWR_jfEDpAS1yq1Xmd-325" value="&lt;b&gt;&lt;font style=&quot;font-size: 10px;&quot;&gt;input&lt;/font&gt;&lt;/b&gt;" style="text;html=1;align=center;verticalAlign=middle;whiteSpace=wrap;rounded=0;" parent="fqJWR_jfEDpAS1yq1Xmd-323" vertex="1">
          <mxGeometry x="21.76484693877551" width="42.12551020408163" height="21.27659574468085" as="geometry" />
        </mxCell>
        <mxCell id="fqJWR_jfEDpAS1yq1Xmd-326" value="" style="endArrow=none;dashed=1;html=1;rounded=0;" parent="fqJWR_jfEDpAS1yq1Xmd-323" edge="1">
          <mxGeometry width="50" height="50" relative="1" as="geometry">
            <mxPoint x="53.358979591836736" y="21.099290780141843" as="sourcePoint" />
            <mxPoint x="32.29622448979592" y="21.099290780141843" as="targetPoint" />
            <Array as="points">
              <mxPoint x="39.317142857142855" y="21.099290780141843" />
            </Array>
          </mxGeometry>
        </mxCell>
        <mxCell id="fqJWR_jfEDpAS1yq1Xmd-327" value="" style="group" parent="fqJWR_jfEDpAS1yq1Xmd-373" vertex="1" connectable="0">
          <mxGeometry y="28.368794326241186" width="63.890357142857134" height="21.27659574468085" as="geometry" />
        </mxCell>
        <mxCell id="fqJWR_jfEDpAS1yq1Xmd-328" value="" style="whiteSpace=wrap;html=1;aspect=fixed;fillColor=#E5D4E8;" parent="fqJWR_jfEDpAS1yq1Xmd-327" vertex="1">
          <mxGeometry width="21.06275290963531" height="21.06275290963531" as="geometry" />
        </mxCell>
        <mxCell id="fqJWR_jfEDpAS1yq1Xmd-329" value="&lt;b&gt;&lt;font style=&quot;font-size: 10px;&quot;&gt;output&lt;/font&gt;&lt;/b&gt;" style="text;html=1;align=center;verticalAlign=middle;whiteSpace=wrap;rounded=0;" parent="fqJWR_jfEDpAS1yq1Xmd-327" vertex="1">
          <mxGeometry x="21.76484693877551" width="42.12551020408163" height="21.27659574468085" as="geometry" />
        </mxCell>
        <mxCell id="fqJWR_jfEDpAS1yq1Xmd-330" value="" style="endArrow=none;dashed=1;html=1;rounded=0;" parent="fqJWR_jfEDpAS1yq1Xmd-327" edge="1">
          <mxGeometry width="50" height="50" relative="1" as="geometry">
            <mxPoint x="53.358979591836736" y="21.099290780141843" as="sourcePoint" />
            <mxPoint x="32.29622448979592" y="21.099290780141843" as="targetPoint" />
            <Array as="points">
              <mxPoint x="39.317142857142855" y="21.099290780141843" />
            </Array>
          </mxGeometry>
        </mxCell>
        <mxCell id="fqJWR_jfEDpAS1yq1Xmd-331" value="" style="group" parent="fqJWR_jfEDpAS1yq1Xmd-373" vertex="1" connectable="0">
          <mxGeometry x="82.84683673469385" width="70" height="21.28" as="geometry" />
        </mxCell>
        <mxCell id="fqJWR_jfEDpAS1yq1Xmd-332" value="" style="ellipse;fillColor=strokeColor;html=1;" parent="fqJWR_jfEDpAS1yq1Xmd-331" vertex="1">
          <mxGeometry width="21.062755102040814" height="21.27659574468085" as="geometry" />
        </mxCell>
        <mxCell id="fqJWR_jfEDpAS1yq1Xmd-333" value="&lt;font style=&quot;font-size: 10px;&quot;&gt;start node&lt;/font&gt;" style="text;html=1;align=center;verticalAlign=middle;whiteSpace=wrap;rounded=0;" parent="fqJWR_jfEDpAS1yq1Xmd-331" vertex="1">
          <mxGeometry x="23.06" width="48.94" height="21.28" as="geometry" />
        </mxCell>
        <mxCell id="fqJWR_jfEDpAS1yq1Xmd-334" value="" style="group" parent="fqJWR_jfEDpAS1yq1Xmd-373" vertex="1" connectable="0">
          <mxGeometry x="84.25102040816324" y="28.368794326241186" width="69.5070918367347" height="21.27659574468085" as="geometry" />
        </mxCell>
        <mxCell id="fqJWR_jfEDpAS1yq1Xmd-335" value="" style="ellipse;html=1;shape=endState;fillColor=strokeColor;" parent="fqJWR_jfEDpAS1yq1Xmd-334" vertex="1">
          <mxGeometry width="21.06275510204082" height="21.27659574468085" as="geometry" />
        </mxCell>
        <mxCell id="fqJWR_jfEDpAS1yq1Xmd-336" value="&lt;font style=&quot;font-size: 10px;&quot;&gt;end node&lt;/font&gt;" style="text;html=1;align=center;verticalAlign=middle;whiteSpace=wrap;rounded=0;" parent="fqJWR_jfEDpAS1yq1Xmd-334" vertex="1">
          <mxGeometry x="22.06275510204082" width="48.444336734693884" height="21.27659574468085" as="geometry" />
        </mxCell>
        <mxCell id="fqJWR_jfEDpAS1yq1Xmd-337" value="" style="group" parent="fqJWR_jfEDpAS1yq1Xmd-373" vertex="1" connectable="0">
          <mxGeometry x="168.50204081632648" width="80" height="21.28" as="geometry" />
        </mxCell>
        <mxCell id="fqJWR_jfEDpAS1yq1Xmd-338" value="" style="shape=sumEllipse;perimeter=ellipsePerimeter;html=1;backgroundOutline=1;fontStyle=0" parent="fqJWR_jfEDpAS1yq1Xmd-337" vertex="1">
          <mxGeometry width="21.06275510204082" height="21.27659574468085" as="geometry" />
        </mxCell>
        <mxCell id="fqJWR_jfEDpAS1yq1Xmd-339" value="&lt;font style=&quot;font-size: 10px;&quot;&gt;break node&lt;/font&gt;" style="text;html=1;align=center;verticalAlign=middle;whiteSpace=wrap;rounded=0;fontStyle=0" parent="fqJWR_jfEDpAS1yq1Xmd-337" vertex="1">
          <mxGeometry x="25.67" width="54.33" height="21.28" as="geometry" />
        </mxCell>
        <mxCell id="fqJWR_jfEDpAS1yq1Xmd-340" value="&lt;b&gt;&lt;font style=&quot;font-size: 10px;&quot;&gt;function_name&lt;/font&gt;&lt;/b&gt;" style="text;html=1;align=center;verticalAlign=middle;whiteSpace=wrap;rounded=0;" parent="fqJWR_jfEDpAS1yq1Xmd-373" vertex="1">
          <mxGeometry x="269.82591836734696" y="28.720000000000027" width="61.78408163265306" height="21.27659574468085" as="geometry" />
        </mxCell>
        <mxCell id="fqJWR_jfEDpAS1yq1Xmd-342" value="&lt;font style=&quot;font-size: 10px;&quot;&gt;action&lt;/font&gt;" style="rounded=1;whiteSpace=wrap;html=1;" parent="fqJWR_jfEDpAS1yq1Xmd-373" vertex="1">
          <mxGeometry x="266.78999999999996" y="0.34999999999990905" width="63.19" height="19.65" as="geometry" />
        </mxCell>
        <mxCell id="fqJWR_jfEDpAS1yq1Xmd-343" value="" style="group" parent="fqJWR_jfEDpAS1yq1Xmd-373" vertex="1" connectable="0">
          <mxGeometry x="168.50204081632648" y="28.014184397163035" width="90" height="21.990000000000002" as="geometry" />
        </mxCell>
        <mxCell id="fqJWR_jfEDpAS1yq1Xmd-344" value="" style="rhombus;fontStyle=0" parent="fqJWR_jfEDpAS1yq1Xmd-343" vertex="1">
          <mxGeometry width="21.062755102040814" height="21.27659574468085" as="geometry" />
        </mxCell>
        <mxCell id="fqJWR_jfEDpAS1yq1Xmd-345" value="&lt;font style=&quot;font-size: 10px;&quot;&gt;decision node&lt;/font&gt;" style="text;html=1;align=center;verticalAlign=middle;whiteSpace=wrap;rounded=0;fontStyle=0" parent="fqJWR_jfEDpAS1yq1Xmd-343" vertex="1">
          <mxGeometry x="21.19" y="0.71" width="68.81" height="21.28" as="geometry" />
        </mxCell>
      </root>
    </mxGraphModel>
  </diagram>
</mxfile>
